<svg width="25" height="25" viewBox="0 0 25 25" fill="none" xmlns="http://www.w3.org/2000/svg">
<path d="M17.5 4.49995V2.56795C17.4998 2.47286 17.5268 2.3797 17.5777 2.29939C17.6287 2.21908 17.7014 2.15496 17.7875 2.11454C17.8736 2.07413 17.9694 2.0591 18.0637 2.07121C18.158 2.08333 18.2469 2.12209 18.32 2.18295L22.44 5.61595C22.519 5.68179 22.5757 5.77037 22.6025 5.86963C22.6293 5.96888 22.6248 6.07398 22.5898 6.17061C22.5547 6.26724 22.4906 6.35071 22.4064 6.40964C22.3222 6.46858 22.2218 6.50011 22.119 6.49995H2.5V4.49995H17.5ZM2.5 18.5H22.5V20.5H2.5V18.5ZM2.5 11.5H22.5V13.5H2.5V11.5Z" fill="#939393"/>
</svg>
