<svg width="25" height="25" viewBox="0 0 25 25" fill="none" xmlns="http://www.w3.org/2000/svg">
<path d="M17.165 4.49995V2.56795C17.1649 2.47286 17.1918 2.3797 17.2428 2.29939C17.2937 2.21908 17.3665 2.15496 17.4525 2.11454C17.5386 2.07413 17.6344 2.0591 17.7288 2.07121C17.8231 2.08333 17.912 2.12209 17.985 2.18295L22.105 5.61595C22.184 5.68179 22.2407 5.77037 22.2675 5.86963C22.2943 5.96888 22.2899 6.07398 22.2548 6.17061C22.2197 6.26724 22.1557 6.35071 22.0714 6.40964C21.9872 6.46858 21.8868 6.50011 21.784 6.49995H2.16504V4.49995H17.165ZM2.16504 18.5H22.165V20.5H2.16504V18.5ZM2.16504 11.5H22.165V13.5H2.16504V11.5Z" fill="#105560"/>
</svg>
